<svg width="51" height="337" viewBox="0 0 51 337" fill="none" xmlns="http://www.w3.org/2000/svg">
<mask id="path-1-inside-1_669_539" fill="white">
<path d="M-1.63781e-06 299.337L-7.35918e-08 335.122C-5.16708e-08 335.624 0.183645 336.054 0.514207 336.34C0.844769 336.627 1.28552 336.806 1.79972 336.806L7.1989 336.806C7.71311 336.806 8.15386 336.627 8.48442 336.305C8.81498 335.982 8.99862 335.588 8.99862 335.122L8.99862 322.155L48.5558 322.155C49.0333 322.155 49.4373 321.976 49.7679 321.654C50.0985 321.331 50.2821 320.937 50.2821 320.472L50.2821 313.881C50.2821 313.379 50.0985 312.949 49.7679 312.663C49.4373 312.376 49.0333 312.197 48.5558 312.197L8.96189 312.197L8.96189 299.302C8.96189 298.8 8.77825 298.37 8.44769 298.048C8.11712 297.725 7.67638 297.546 7.16217 297.546L1.79972 297.546C1.28552 297.546 0.844767 297.725 0.514205 298.048C0.183644 298.406 -1.65973e-06 298.836 -1.63781e-06 299.337Z"/>
<path d="M1.79972 255.027C0.587662 255.493 -3.51674e-06 256.352 -3.46507e-06 257.534L-3.12843e-06 265.236C-3.07519e-06 266.454 0.587662 267.278 1.79972 267.743L48.1151 284.579L48.7762 284.722C49.217 284.722 49.5843 284.579 49.8414 284.293C50.1352 284.006 50.2821 283.648 50.2821 283.254L50.2821 277.021C50.2821 276.054 49.8414 275.373 48.9231 274.979L9.80666 261.403L48.8864 247.827C49.8046 247.469 50.2454 246.788 50.2454 245.785L50.2454 239.552C50.2454 239.194 50.0985 238.836 49.8046 238.549C49.5108 238.263 49.1435 238.084 48.7395 238.084L48.0784 238.227L1.79972 255.027Z"/>
<path d="M41.6508 184.102L41.6508 206.311L1.72626 206.311C1.21205 206.311 0.771305 206.454 0.477472 206.776C0.18364 207.063 -5.65247e-06 207.493 -5.63055e-06 207.994L-5.34244e-06 214.585C-5.32209e-06 215.051 0.146911 215.445 0.477473 215.767C0.771305 216.09 1.21205 216.269 1.72626 216.269L48.5191 216.269C48.9966 216.269 49.4006 216.09 49.7312 215.767C50.0617 215.445 50.2454 215.051 50.2454 214.585L50.2454 184.137C50.2454 183.636 50.0617 183.206 49.7312 182.884C49.4006 182.561 48.9966 182.382 48.5191 182.382L43.3403 182.382C42.8628 182.382 42.4588 182.561 42.1282 182.884C41.7977 183.17 41.6508 183.6 41.6508 184.102Z"/>
<path d="M-1.1914e-05 64.2448L-1.1651e-05 70.2627C-1.16291e-05 70.7642 0.183634 71.1941 0.514196 71.4806C0.844757 71.7672 1.28551 71.9463 1.79971 71.9463L33.0929 71.9463L1.21205 91.9702C0.404009 92.4359 -1.0652e-05 93.1165 -1.06129e-05 94.012L-1.03749e-05 99.4568C-1.03529e-05 99.9583 0.183635 100.388 0.514197 100.675C0.844759 100.961 1.28551 101.14 1.79971 101.14L48.5191 101.14C48.9966 101.14 49.4006 100.961 49.7312 100.639C50.0617 100.316 50.2454 99.9224 50.2454 99.4568L50.2454 93.4388C50.2454 92.9374 50.0617 92.5075 49.7312 92.2209C49.4006 91.9344 48.9966 91.7553 48.5191 91.7553L17.8871 91.7553L49.0333 71.803C49.8414 71.3373 50.2454 70.6209 50.2454 69.6896L50.2454 64.1732C50.2454 63.7075 50.0617 63.3135 49.7312 62.9911C49.4006 62.6687 48.9599 62.4896 48.4456 62.4896L1.79971 62.4896C1.28551 62.4896 0.844757 62.6687 0.514195 62.9911C0.183633 63.3135 -1.19375e-05 63.7075 -1.1914e-05 64.2448Z"/>
<path d="M0.514192 1.34336C0.183631 1.66575 -1.46307e-05 2.09559 -1.46087e-05 2.59709L-1.30445e-05 38.3821C-1.30226e-05 38.8836 0.183632 39.3135 0.514194 39.6C0.844756 39.8866 1.2855 40.0657 1.79971 40.0657L7.19889 40.0657C7.71309 40.0657 8.15384 39.8866 8.48441 39.5642C8.81497 39.2418 8.99861 38.8478 8.99861 38.3821L8.99861 25.415L48.5558 25.415C49.0333 25.415 49.4373 25.2359 49.7679 24.9135C50.0984 24.5911 50.2821 24.1971 50.2821 23.7314L50.2821 17.1403C50.2821 16.6389 50.0984 16.209 49.7679 15.9224C49.4373 15.6359 49.0333 15.4567 48.5558 15.4567L8.96188 15.4567L8.96188 2.56122C8.96188 2.05973 8.77824 1.62989 8.44767 1.3075C8.11711 0.985111 7.67636 0.806023 7.16216 0.806023L1.79971 0.806023C1.2855 0.877665 0.844754 1.02098 0.514192 1.34336Z"/>
<path d="M41.9446 127.039L41.9446 158.49C41.9446 158.955 42.1282 159.349 42.4588 159.672C42.7894 159.994 43.1934 160.173 43.6709 160.173L48.5926 160.173C49.07 160.173 49.4741 159.994 49.8046 159.672C50.1352 159.349 50.3188 158.955 50.3188 158.49L50.3188 127.039C50.3188 126.537 50.1719 126.108 49.8414 125.785C49.5475 125.463 49.1068 125.284 48.5926 125.284L43.7076 125.284C43.1934 125.284 42.7526 125.463 42.4588 125.785C42.0915 126.108 41.9446 126.537 41.9446 127.039Z"/>
<path d="M-9.16921e-06 127.039L-7.79446e-06 158.49C-7.7741e-06 158.955 0.183638 159.349 0.514199 159.672C0.844761 159.994 1.24878 160.173 1.72626 160.173L6.61123 160.173C7.08871 160.173 7.49272 159.994 7.82329 159.672C8.15385 159.349 8.33749 158.955 8.33749 158.49L8.33749 127.039C8.33749 126.537 8.19058 126.108 7.86001 125.785C7.56618 125.463 7.12543 125.284 6.61123 125.284L1.72626 125.284C1.21205 125.284 0.771301 125.463 0.477469 125.785C0.146907 126.108 -9.19113e-06 126.537 -9.16921e-06 127.039Z"/>
<path d="M20.9723 127.039L20.9723 158.49C20.9723 158.955 21.1559 159.349 21.4865 159.672C21.8171 159.994 22.2211 160.173 22.6986 160.173L27.6203 160.173C28.0977 160.173 28.5018 159.994 28.8323 159.672C29.1629 159.349 29.3465 158.955 29.3465 158.49L29.3465 127.039C29.3465 126.537 29.1996 126.108 28.869 125.785C28.5752 125.463 28.1345 125.284 27.6203 125.284L22.6986 125.284C22.1844 125.284 21.7436 125.463 21.4498 125.785C21.1192 126.108 20.9723 126.537 20.9723 127.039Z"/>
</mask>
<path d="M-1.63781e-06 299.337L-7.35918e-08 335.122C-5.16708e-08 335.624 0.183645 336.054 0.514207 336.34C0.844769 336.627 1.28552 336.806 1.79972 336.806L7.1989 336.806C7.71311 336.806 8.15386 336.627 8.48442 336.305C8.81498 335.982 8.99862 335.588 8.99862 335.122L8.99862 322.155L48.5558 322.155C49.0333 322.155 49.4373 321.976 49.7679 321.654C50.0985 321.331 50.2821 320.937 50.2821 320.472L50.2821 313.881C50.2821 313.379 50.0985 312.949 49.7679 312.663C49.4373 312.376 49.0333 312.197 48.5558 312.197L8.96189 312.197L8.96189 299.302C8.96189 298.8 8.77825 298.37 8.44769 298.048C8.11712 297.725 7.67638 297.546 7.16217 297.546L1.79972 297.546C1.28552 297.546 0.844767 297.725 0.514205 298.048C0.183644 298.406 -1.65973e-06 298.836 -1.63781e-06 299.337Z" stroke="url(#paint0_linear_669_539)" stroke-width="3" mask="url(#path-1-inside-1_669_539)"/>
<path d="M1.79972 255.027C0.587662 255.493 -3.51674e-06 256.352 -3.46507e-06 257.534L-3.12843e-06 265.236C-3.07519e-06 266.454 0.587662 267.278 1.79972 267.743L48.1151 284.579L48.7762 284.722C49.217 284.722 49.5843 284.579 49.8414 284.293C50.1352 284.006 50.2821 283.648 50.2821 283.254L50.2821 277.021C50.2821 276.054 49.8414 275.373 48.9231 274.979L9.80666 261.403L48.8864 247.827C49.8046 247.469 50.2454 246.788 50.2454 245.785L50.2454 239.552C50.2454 239.194 50.0985 238.836 49.8046 238.549C49.5108 238.263 49.1435 238.084 48.7395 238.084L48.0784 238.227L1.79972 255.027Z" stroke="url(#paint1_linear_669_539)" stroke-width="3" mask="url(#path-1-inside-1_669_539)"/>
<path d="M41.6508 184.102L41.6508 206.311L1.72626 206.311C1.21205 206.311 0.771305 206.454 0.477472 206.776C0.18364 207.063 -5.65247e-06 207.493 -5.63055e-06 207.994L-5.34244e-06 214.585C-5.32209e-06 215.051 0.146911 215.445 0.477473 215.767C0.771305 216.09 1.21205 216.269 1.72626 216.269L48.5191 216.269C48.9966 216.269 49.4006 216.09 49.7312 215.767C50.0617 215.445 50.2454 215.051 50.2454 214.585L50.2454 184.137C50.2454 183.636 50.0617 183.206 49.7312 182.884C49.4006 182.561 48.9966 182.382 48.5191 182.382L43.3403 182.382C42.8628 182.382 42.4588 182.561 42.1282 182.884C41.7977 183.17 41.6508 183.6 41.6508 184.102Z" stroke="url(#paint2_linear_669_539)" stroke-width="3" mask="url(#path-1-inside-1_669_539)"/>
<path d="M-1.1914e-05 64.2448L-1.1651e-05 70.2627C-1.16291e-05 70.7642 0.183634 71.1941 0.514196 71.4806C0.844757 71.7672 1.28551 71.9463 1.79971 71.9463L33.0929 71.9463L1.21205 91.9702C0.404009 92.4359 -1.0652e-05 93.1165 -1.06129e-05 94.012L-1.03749e-05 99.4568C-1.03529e-05 99.9583 0.183635 100.388 0.514197 100.675C0.844759 100.961 1.28551 101.14 1.79971 101.14L48.5191 101.14C48.9966 101.14 49.4006 100.961 49.7312 100.639C50.0617 100.316 50.2454 99.9224 50.2454 99.4568L50.2454 93.4388C50.2454 92.9374 50.0617 92.5075 49.7312 92.2209C49.4006 91.9344 48.9966 91.7553 48.5191 91.7553L17.8871 91.7553L49.0333 71.803C49.8414 71.3373 50.2454 70.6209 50.2454 69.6896L50.2454 64.1732C50.2454 63.7075 50.0617 63.3135 49.7312 62.9911C49.4006 62.6687 48.9599 62.4896 48.4456 62.4896L1.79971 62.4896C1.28551 62.4896 0.844757 62.6687 0.514195 62.9911C0.183633 63.3135 -1.19375e-05 63.7075 -1.1914e-05 64.2448Z" stroke="url(#paint3_linear_669_539)" stroke-width="3" mask="url(#path-1-inside-1_669_539)"/>
<path d="M0.514192 1.34336C0.183631 1.66575 -1.46307e-05 2.09559 -1.46087e-05 2.59709L-1.30445e-05 38.3821C-1.30226e-05 38.8836 0.183632 39.3135 0.514194 39.6C0.844756 39.8866 1.2855 40.0657 1.79971 40.0657L7.19889 40.0657C7.71309 40.0657 8.15384 39.8866 8.48441 39.5642C8.81497 39.2418 8.99861 38.8478 8.99861 38.3821L8.99861 25.415L48.5558 25.415C49.0333 25.415 49.4373 25.2359 49.7679 24.9135C50.0984 24.5911 50.2821 24.1971 50.2821 23.7314L50.2821 17.1403C50.2821 16.6389 50.0984 16.209 49.7679 15.9224C49.4373 15.6359 49.0333 15.4567 48.5558 15.4567L8.96188 15.4567L8.96188 2.56122C8.96188 2.05973 8.77824 1.62989 8.44767 1.3075C8.11711 0.985111 7.67636 0.806023 7.16216 0.806023L1.79971 0.806023C1.2855 0.877665 0.844754 1.02098 0.514192 1.34336Z" stroke="url(#paint4_linear_669_539)" stroke-width="3" mask="url(#path-1-inside-1_669_539)"/>
<path d="M41.9446 127.039L41.9446 158.49C41.9446 158.955 42.1282 159.349 42.4588 159.672C42.7894 159.994 43.1934 160.173 43.6709 160.173L48.5926 160.173C49.07 160.173 49.4741 159.994 49.8046 159.672C50.1352 159.349 50.3188 158.955 50.3188 158.49L50.3188 127.039C50.3188 126.537 50.1719 126.108 49.8414 125.785C49.5475 125.463 49.1068 125.284 48.5926 125.284L43.7076 125.284C43.1934 125.284 42.7526 125.463 42.4588 125.785C42.0915 126.108 41.9446 126.537 41.9446 127.039Z" stroke="url(#paint5_linear_669_539)" stroke-width="3" mask="url(#path-1-inside-1_669_539)"/>
<path d="M-9.16921e-06 127.039L-7.79446e-06 158.49C-7.7741e-06 158.955 0.183638 159.349 0.514199 159.672C0.844761 159.994 1.24878 160.173 1.72626 160.173L6.61123 160.173C7.08871 160.173 7.49272 159.994 7.82329 159.672C8.15385 159.349 8.33749 158.955 8.33749 158.49L8.33749 127.039C8.33749 126.537 8.19058 126.108 7.86001 125.785C7.56618 125.463 7.12543 125.284 6.61123 125.284L1.72626 125.284C1.21205 125.284 0.771301 125.463 0.477469 125.785C0.146907 126.108 -9.19113e-06 126.537 -9.16921e-06 127.039Z" stroke="url(#paint6_linear_669_539)" stroke-width="3" mask="url(#path-1-inside-1_669_539)"/>
<path d="M20.9723 127.039L20.9723 158.49C20.9723 158.955 21.1559 159.349 21.4865 159.672C21.8171 159.994 22.2211 160.173 22.6986 160.173L27.6203 160.173C28.0977 160.173 28.5018 159.994 28.8323 159.672C29.1629 159.349 29.3465 158.955 29.3465 158.49L29.3465 127.039C29.3465 126.537 29.1996 126.108 28.869 125.785C28.5752 125.463 28.1345 125.284 27.6203 125.284L22.6986 125.284C22.1844 125.284 21.7436 125.463 21.4498 125.785C21.1192 126.108 20.9723 126.537 20.9723 127.039Z" stroke="url(#paint7_linear_669_539)" stroke-width="3" mask="url(#path-1-inside-1_669_539)"/>
<defs>
<linearGradient id="paint0_linear_669_539" x1="25.1594" y1="335.197" x2="25.1594" y2="17.8243" gradientUnits="userSpaceOnUse">
<stop stop-color="#7116F2"/>
<stop offset="1" stop-color="#43AEFF"/>
</linearGradient>
<linearGradient id="paint1_linear_669_539" x1="25.1594" y1="335.197" x2="25.1594" y2="17.8243" gradientUnits="userSpaceOnUse">
<stop stop-color="#7116F2"/>
<stop offset="1" stop-color="#43AEFF"/>
</linearGradient>
<linearGradient id="paint2_linear_669_539" x1="25.1594" y1="335.197" x2="25.1594" y2="17.8243" gradientUnits="userSpaceOnUse">
<stop stop-color="#7116F2"/>
<stop offset="1" stop-color="#43AEFF"/>
</linearGradient>
<linearGradient id="paint3_linear_669_539" x1="25.1594" y1="335.197" x2="25.1594" y2="17.8243" gradientUnits="userSpaceOnUse">
<stop stop-color="#7116F2"/>
<stop offset="1" stop-color="#43AEFF"/>
</linearGradient>
<linearGradient id="paint4_linear_669_539" x1="25.1594" y1="335.197" x2="25.1594" y2="17.8243" gradientUnits="userSpaceOnUse">
<stop stop-color="#7116F2"/>
<stop offset="1" stop-color="#43AEFF"/>
</linearGradient>
<linearGradient id="paint5_linear_669_539" x1="25.1594" y1="335.197" x2="25.1594" y2="17.8243" gradientUnits="userSpaceOnUse">
<stop stop-color="#7116F2"/>
<stop offset="1" stop-color="#43AEFF"/>
</linearGradient>
<linearGradient id="paint6_linear_669_539" x1="25.1594" y1="335.197" x2="25.1594" y2="17.8243" gradientUnits="userSpaceOnUse">
<stop stop-color="#7116F2"/>
<stop offset="1" stop-color="#43AEFF"/>
</linearGradient>
<linearGradient id="paint7_linear_669_539" x1="25.1594" y1="335.197" x2="25.1594" y2="17.8243" gradientUnits="userSpaceOnUse">
<stop stop-color="#7116F2"/>
<stop offset="1" stop-color="#43AEFF"/>
</linearGradient>
</defs>
</svg>
